Title                            : The Town
Year                             : 2010
Genre                            : Crime | Drama | Thriller
iMDB URL                         : http://www.imdb.com/title/tt0840361/

Complete name                    : The.Town.2010.Extended.BRRIP.720P.H264-ZEKTORM.mp4
Format                           : MPEG-4
Format profile                   : Base Media
Codec ID                         : isom
File size                        : 3.03 GiB
Duration                         : 2h 30mn
Overall bit rate                 : 2878 Kbps
Subtitles                        : English (Format: srt)

Video
ID                               : 1
Format                           : AVC
Format/Info                      : Advanced Video Codec
Format profile                   : High@L4.0
Format settings, CABAC           : Yes
Format settings, ReFrames        : 5 frames
Codec ID                         : avc1
Codec ID/Info                    : Advanced Video Coding
Duration                         : 2h 30mn
Bit rate mode                    : Variable
Bit rate                         : 2447 Kbps
Width                            : 1280 pixels
Height                           : 528 pixels
Display aspect ratio             : 2.424
Frame rate mode                  : Constant
Frame rate                       : 23.976 fps
Resolution                       : 24 bits
Colorimetry                      : 4:2:0
Scan type                        : Progressive
Bits/(Pixel*Frame)               : 0.151
Stream size                      : 2.57 GiB (85%)
Title                            : Video
Writing library                  : x264

Audio
ID                               : 2
Format                           : AAC
Format/Info                      : Advanced Audio Codec
Format version                   : Version 4
Format profile                   : LC
Format settings, SBR             : No
Codec ID                         : 40
Duration                         : 2h 30mn
Bit rate mode                    : Variable
Bit rate                         : 428 Kbps
Maximum bit rate                 : 612 Kbps
Channel(s)                       : 6 channels
Channel positions                : Front: L C R, Rear: L R, LFE
Sampling rate                    : 48.0 KHz
Resolution                       : 16 bits
Stream size                      : 461 MiB (15%)
Language                         : English


Screenshots: 
http://img97.imageshack.us/img97/7748/snapt1.png 
http://img691.imageshack.us/img691/9537/snapt2.png 
http://img31.imageshack.us/img31/2377/snapt3.png 
http://img94.imageshack.us/img94/586/snapt4.png 
http://img230.imageshack.us/img230/7688/snapt5.png

